<!-- Generator: Adobe Illustrator 21.1.0, SVG Export Plug-In  -->
<svg version="1.1"
	 xmlns="http://www.w3.org/2000/svg" xmlns:xlink="http://www.w3.org/1999/xlink" xmlns:a="http://ns.adobe.com/AdobeSVGViewerExtensions/3.0/"
	 x="0px" y="0px" width="358px" height="165.955px" viewBox="0 0 358 165.955"
	 style="overflow:scroll;enable-background:new 0 0 358 165.955;" xml:space="preserve">
<style type="text/css">
	.st0{fill:#B3B3B3;}
</style>
<defs>
</defs>
<g>
	<g>
		<path class="st0" d="M180.835,27.053c-14.986,0-27.22,11.777-27.955,26.58c-0.012-0.01-0.024-0.02-0.035-0.031v49.93
			c4.332,2.506,9.03,4.449,13.995,5.727V79.287c4.117,2.382,8.897,3.745,13.995,3.745c15.458,0,27.99-12.532,27.99-27.99
			S196.294,27.053,180.835,27.053z M180.835,69.037c-7.729,0-13.995-6.266-13.995-13.995s6.266-13.995,13.995-13.995
			s13.995,6.266,13.995,13.995S188.565,69.037,180.835,69.037z"/>
		<path class="st0" d="M235.408,52.195C234.134,23.154,210.19,0,180.835,0c-30.171,0-54.629,24.458-54.629,54.629
			c0,13.854,5.158,26.502,13.657,36.133v-37.55h0.027c0.747-21.972,18.791-39.555,40.945-39.555
			c22.628,0,40.972,18.344,40.972,40.972s-18.344,40.972-40.972,40.972v13.657c16.323,0,30.971-7.161,40.981-18.511
			c0,18.318,13.648,18.511,13.648,18.511V52.195H235.408z"/>
	</g>
	<g>
		<path class="st0" d="M15.988,109.243c-8.505-0.356-15.556,6.221-15.969,14.544c-0.006-0.006-0.013-0.011-0.019-0.017v27.347
			c2.373,1.372,4.946,2.437,7.665,3.137v-16.416c2.255,1.304,4.873,2.051,7.665,2.051c8.616,0,15.571-7.107,15.324-15.779
			C30.426,116.136,23.96,109.576,15.988,109.243z M16.327,132.161c-5.014,0.632-9.231-3.585-8.599-8.599
			c0.431-3.416,3.189-6.175,6.606-6.606c5.014-0.632,9.231,3.585,8.599,8.599C22.502,128.972,19.743,131.731,16.327,132.161z"/>
		<path class="st0" d="M36.315,109.229L36.315,109.229c6.694,0,12.12,5.426,12.12,12.12v4.307c1.927-2.87,5.147-4.307,9.659-4.307
			c7.752,0,11.628,4.041,11.628,12.12v20.303H57.602v-19.38c0-3.527-1.6-5.291-4.799-5.291c-2.913,0-4.369,2.113-4.369,6.337v18.335
			h-1.64c-5.788,0-10.48-4.692-10.48-10.48V109.229z"/>
		<path class="st0" d="M114.01,137.777c0-3.773,1.354-7.465,4.061-11.075c2.461-3.24,7.096-4.86,13.905-4.86
			c5.455,0,9.782,1.19,12.982,3.568c3.609,2.707,5.414,6.686,5.414,11.936c0,4.43-1.107,8.081-3.322,10.951
			c-2.298,2.995-5.579,4.943-9.844,5.845c-1.887,0.41-3.63,0.615-5.23,0.615c-5.251,0-9.558-1.517-12.92-4.553
			c-3.364-3.035-5.045-7.157-5.045-12.367V137.777z M137.759,137.285v-0.554c-0.206-5.373-2.133-8.06-5.783-8.06
			c-3.898,0-5.845,2.892-5.845,8.675c0,2.544,0.348,4.697,1.046,6.46c1.025,2.502,2.624,3.753,4.799,3.753
			c3.855,0,5.783-3.24,5.783-9.721V137.285z"/>
		<path class="st0" d="M214.896,147.99c-1.764,3.241-5.148,4.861-10.151,4.861c-4.225,0-7.65-1.558-10.275-4.676
			c-2.543-2.953-3.814-6.562-3.814-10.828c0-4.265,1.271-7.875,3.814-10.828c2.625-3.117,6.05-4.676,10.275-4.676
			c5.004,0,8.388,1.784,10.151,5.353c0-0.409,0.082-1.435,0.246-3.076c0.081-0.41,0.143-0.738,0.185-0.984l0.061-0.308h0
			c6.412-0.034,11.628,5.155,11.628,11.567v15.996c0,4.635-1.364,8.275-4.091,10.921c-2.728,2.646-6.409,4.173-11.044,4.584
			c-0.738,0.04-1.436,0.061-2.092,0.061h-1.107c-2.298,0-4.533-0.245-6.706-0.738c-6.235-1.395-9.352-4.717-9.352-9.967h11.628
			c0,2.174,1.456,3.466,4.368,3.877c2.871,0,4.716-1.026,5.537-3.077c0.492-1.149,0.738-3.445,0.738-6.891V147.99z M214.896,136.3
			c0-0.205-0.021-0.369-0.061-0.492c-0.575-4.758-2.482-7.137-5.722-7.137c-1.928,0-3.507,1.067-4.737,3.199
			c-0.739,1.23-1.108,3.056-1.108,5.476c0,2.174,0.41,3.999,1.231,5.476c1.066,1.846,2.604,2.769,4.614,2.769
			c3.855,0,5.783-2.912,5.783-8.737V136.3z"/>
		<path class="st0" d="M250.344,109.229h7.239c4.689,0,8.899,2.871,10.612,7.236l14.634,37.308h-14.028l-2.953-8.244h-17.411
			l-0.404,1.151c-1.491,4.249-5.502,7.093-10.005,7.093h-5.588L250.344,109.229z M262.465,136.362l-5.291-17.965l-5.845,17.965
			H262.465z"/>
		<path class="st0" d="M324.592,109.229L324.592,109.229c6.694,0,12.12,5.426,12.12,12.12v4.307c1.927-2.87,5.147-4.307,9.659-4.307
			c7.752,0,11.628,4.041,11.628,12.12v20.303h-12.121v-19.38c0-3.527-1.6-5.291-4.799-5.291c-2.913,0-4.369,2.113-4.369,6.337
			v18.335h-0.274c-6.543,0-11.846-5.304-11.846-11.846V109.229z"/>
		<path class="st0" d="M184.755,125.41c-2.584-2.378-5.886-3.568-9.905-3.568c-3.815,0-6.871,1.456-9.167,4.368
			c0,0-1.593-3.876-12.613-3.876l0.123,0.554c0.04,0.657,0.082,1.169,0.123,1.538c0.163,1.682,0.246,3.22,0.246,4.614v15.444
			c0,5.13,4.159,9.289,9.289,9.289h2.831v-19.319c0-1.435,0.44-2.686,1.322-3.753c0.882-1.066,2.04-1.62,3.476-1.661h0.185
			c1.517,0.041,2.707,0.657,3.568,1.846c0.738,1.067,1.107,2.399,1.107,3.999v8.972c0,5.477,4.44,9.916,9.916,9.916h1.712v-22.211
			C186.97,128.856,186.232,126.805,184.755,125.41z"/>
		<path class="st0" d="M316.785,125.41c-2.584-2.378-5.886-3.568-9.905-3.568c-3.815,0-6.871,1.456-9.167,4.368v-0.123
			c0,0-1.935-3.753-12.613-3.753l0.123,0.554c0.04,0.657,0.082,1.169,0.123,1.538c0.163,1.682,0.246,3.22,0.246,4.614v15.764
			c0,4.953,4.016,8.969,8.969,8.969h3.152v-19.319c0-1.435,0.44-2.686,1.322-3.753c0.882-1.066,2.04-1.62,3.476-1.661h0.185
			c1.517,0.041,2.707,0.657,3.568,1.846c0.738,1.067,1.107,2.399,1.107,3.999v9.4c0,5.24,4.248,9.488,9.488,9.488H319v-22.211
			C319,128.856,318.261,126.805,316.785,125.41z"/>
		<path class="st0" d="M97.6,149.881c0,0,0.357,4.427,7.251,4.876h3.934c-0.083-1.025-0.165-2.892-0.246-3.63
			c0-0.492-0.041-1.251-0.123-2.276c-0.083-1.025-0.123-1.804-0.123-2.338v-12.12c0-6.422-5.206-11.628-11.628-11.628v17.042
			c0,4.84-1.764,7.26-5.291,7.26c-1.272,0-2.195-0.554-2.769-1.661c-0.492-0.902-0.841-2.132-1.045-3.692
			c-0.041-0.163-0.062-0.328-0.062-0.492v-6.337c0-6.694-5.426-12.12-12.12-12.12l0,0v20.426c0,3.733,1.076,6.594,3.23,8.583
			c2.153,1.99,5.116,2.984,8.89,2.984C91.312,154.758,95.302,152.753,97.6,149.881z"/>
	</g>
</g>
</svg>